<?xml version="1.0" encoding="UTF-8"?>
<svg enable-background="new 0 0 455.6 290.1" version="1.1" viewBox="0 0 455.6 290.1" xml:space="preserve" xmlns="http://www.w3.org/2000/svg">
<style type="text/css">
	.st0{fill:#FFFFFF;}
	.st1{fill:#FF5E5B;}
</style>
<g transform="translate(-37.58 -135.5)">
	<g transform="matrix(1.1422 0 0 -1.1422 265.93 460.73)">
			<path class="st0" d="m115.8 142.2c-15.4-1.9-27.9-0.5-27.9-0.5v94.4h19c12.5 0 24.6-5.2 32.8-14.7 5.8-6.7 10.4-16.1 10.4-29.1-0.1-31.8-16.5-44.3-34.3-50.1m81.2 66.3c-5.5 29.2-21.3 47.4-37.4 58.7-16.7 11.6-36.6 17.6-57 17.6h-288.6c-10 0-13.9-9.8-13.9-14.7v-3.2s-0.5-127.7 0.4-195.9c2.7-40.3 43.1-40.2 43.1-40.2s131.7 0.4 194.8 0.8c3 0 5.9 0.3 8.8 1.1 36 9 39.7 42.4 39.3 61 72.4-4.1 123.4 46.9 110.5 114.8"/>
			<path class="st1" d="m-58.5 83.7c3.1-1.6 5.1 0.4 5.1 0.4s45.9 41.9 66.6 66.1c18.4 21.6 19.6 58-12 71.6s-57.6-16-57.6-16c-22.5 24.8-56.7 23.5-72.5 6.8-15.8-16.8-10.3-45.6 1.5-61.6 11.1-15 59.6-58.4 67-65.7 0.1-0.1 0.7-0.7 1.9-1.6"/>
	</g>
</g>
</svg>
