<svg id="Layer_1" data-name="Layer 1" xmlns="http://www.w3.org/2000/svg" viewBox="0 0 420 420"><title>Artboard 1</title><path id="OREZ_A_.InWings" data-name="OREZ[A].InWings" d="M27.66,197l-.06,0a4,4,0,0,0-2.4,3c-2.37-1.74-4.44-2.59-6.3-2.59A5.21,5.21,0,0,0,15.11,199c-3.81,3.79-.34,10.16,1.94,12.66,4.29,4.7,10.32,6.9,16.21,8.58A50,50,0,0,0,42.43,222l.11.39a27.47,27.47,0,0,0,6,10.72,39.25,39.25,0,0,0,17.66,10.08,6.53,6.53,0,0,0,1,2.1c1.54,2.26,4.4,3.77,8.76,4.66a19.41,19.41,0,0,0,3.84.36h.05c1.52,0,5.24-.26,7.13-2.89a8.84,8.84,0,0,0,1.38-5.57,11.63,11.63,0,0,0,3.55.74c4.19,0,8.81-2.12,9.11-6.68a16.28,16.28,0,0,0-.54-4.81l.2-.26c4.79-.14,8.37-2.12,10.11-5.61,1.57-3.15,2.13-8.69-1.54-11.14a5.67,5.67,0,0,0-1.84-.79c.16-1.43.25-2.93.27-4.5,4.66-2.42,5.12-9.87,3.62-14.41-.5-1.53-2.44-6.53-6.18-6.53a4.44,4.44,0,0,0-2.11.56,34.48,34.48,0,0,0-1.87-3.31,7.14,7.14,0,0,0,2-7.33,4.18,4.18,0,0,0-1-1.62,4.57,4.57,0,0,1-.41-.52A16.1,16.1,0,0,0,96,168.43,9,9,0,0,0,91,166.88a7.86,7.86,0,0,0-.95.06,7.64,7.64,0,0,0-3.42,1.37c-.83-.69-1.66-1.33-2.63-2a11,11,0,0,0,1.13-1.77c.92-1.8-.46-4.42-1.08-5.28A13.74,13.74,0,0,0,75,153.77a13.15,13.15,0,0,0-2.14-.19l-.57,0h-.1a6.59,6.59,0,0,0-4.47,1.46,2.92,2.92,0,0,0-.74,1L64,154.51a2.37,2.37,0,0,0,.9-3.26,6.46,6.46,0,0,0-2.7-2.82,16.46,16.46,0,0,0-4.83-1.74c-.5-.12-1-.25-1.48-.39-.89-.88-2.67-2.35-4.61-2.35a3.44,3.44,0,0,0-2.26.82l-.53-.51c1.33-2.18-.07-4.11-.91-5.27l-.25-.34c-1.15-1.59-2.88-4-5.48-4a4.27,4.27,0,0,0-1.3.21,11.47,11.47,0,0,1-1.4-3.82c.09-.18.27-.48.37-.66a6.67,6.67,0,0,0,.38-.69,16.42,16.42,0,0,0,.73-1.94,11.72,11.72,0,0,0,0-6.37c-.5-1.88-1.92-4.29-4.28-4.89a5.33,5.33,0,0,0-1.3-.16,8,8,0,0,0-5.52,2.45,28.75,28.75,0,0,0-2.38,2.92A30,30,0,0,0,23,130.43c-.36,1.16-.67,2.39-.94,3.65a39.46,39.46,0,0,0-.74,8,43.21,43.21,0,0,0,2.54,14,42.57,42.57,0,0,0,2.76,6.28,43.43,43.43,0,0,0-5.46-.75c-4.75-7.21-8.47-10.44-12-10.44a5.48,5.48,0,0,0-2.2.46c-4,1.77-4.44,7.56-3.73,11A53.72,53.72,0,0,0,27.66,197Zm.53,5.68c.84-3.63,3.54-3.29,5.93-2.63l1.63-.62.29.12A73.14,73.14,0,0,0,43.59,202a6.86,6.86,0,0,0-2.71,3c-.77,2.11,1.93,4.19,2.63,4.68a27.88,27.88,0,0,0-.35,8.95,45.47,45.47,0,0,1-9-1.69c-5.39-1.54-10.89-3.52-14.59-7.58-1.65-1.81-3.81-6.09-2.05-7.83s5.05.84,6.95,2.45l.57.48.64-.39C26.51,203.58,27.34,203.12,28.19,202.69Zm15.2,3.43s.17.11,1,.06c-.19.58-.37,1.17-.52,1.77a2,2,0,0,1-1.41-2.25c.08-2.25,2.72-3,3.33-3.21l.09,0a29.08,29.08,0,0,0-1.32,3.2ZM6.64,161.87c-.42-2-.35-6.21,1.71-7.11,1.55-.68,4.64.46,10.56,9.72l.3.46.55,0A39.46,39.46,0,0,1,27.29,166l-.23.81,3-.7a2.79,2.79,0,0,1-.1-1c.55.82,1.12,1.62,1.72,2.39a47.75,47.75,0,0,0,7.2,7.45l.23.18c-.54.84-1.27,2.75.95,5.23a2.8,2.8,0,0,1,1-3.7c1.53,1.14,3.1,2.22,4.7,3.25a10.56,10.56,0,0,1-3-.13c2.08,1.54,5.42,2.23,6.8,2.46l2.56,1.51c-.13.91-.76,2-3.09,1.84,3.38.42,4.58-.18,5-.72,1.53.89,3.06,1.8,4.59,2.74a6,6,0,0,0,1.78,2.66,20,20,0,0,0-11.91,7.89,25.7,25.7,0,0,0-1.57,2.37,71.24,71.24,0,0,1-10.14-3C21.78,191.91,9.94,177.89,6.64,161.87ZM44.39,144A10.53,10.53,0,0,1,41,142.67a4.2,4.2,0,0,0-.77-2.47,6.9,6.9,0,0,0-.89-1.07,13.19,13.19,0,0,1,1.37-1.32c1.66-1.28,3.28.5,4.25,1.78a6,6,0,0,1,1.53,2.6C46.68,143.31,45.41,144,44.39,144Zm64.28,77.08a8.12,8.12,0,0,1-1.39,3.42,8.21,8.21,0,0,1-6.29,3.35,34.84,34.84,0,0,0,4.44-11.34,4,4,0,0,1,1.51.31C108.56,217.5,108.85,219.5,108.67,221.08Zm-5.52-28.71a6.85,6.85,0,0,1,2.7-.66c1.23.48,1.85,2.51,2.21,3.68a14.27,14.27,0,0,1,.25,7.3,5.54,5.54,0,0,1-1,2.44,6,6,0,0,1-1.15.61,38.65,38.65,0,0,0-.66-5.26A48.1,48.1,0,0,0,103.15,192.37Zm-14.09,46.9a32.61,32.61,0,0,0,8.48-6.79c.08.39.21.79.28,1.16.36,1.87.2,3.52-1.48,4.69a8.72,8.72,0,0,1-4.95,1.39C91.1,239.72,90,239.47,89.06,239.27ZM78.36,247a16.81,16.81,0,0,1-6-1.92,9.91,9.91,0,0,1-3.07-2.6,32.85,32.85,0,0,0,3.58.48c.74.06,6.3-2.47,9.24-3.46-1.22.11-6,1.34-9.1,1.78-8-1.36-16.27-4.7-22-10.59a23.93,23.93,0,0,1-5.14-9.27c-2-7-.33-15.83,4.28-22,3.59-4.79,8.55-7.43,14-7.43a4.18,4.18,0,0,1,1,0,22.82,22.82,0,0,1,6.07,6c1.06,1.76,1.73,4.62.88,6.57-1.44,3.28-3.83-.3-5.89,0-1.32.2-1.52,1.68-1.32,2.75.51,2.77,3.26,3.59,5.69,3.37a5.56,5.56,0,0,0,5.34-5.43A12.21,12.21,0,0,0,74.46,199c-1.84-3.49-5-6.29-8.09-8.63a123,123,0,0,0-12.19-7.77c-9.52-5.55-19.43-12.22-24.76-22.22A38.21,38.21,0,0,1,26.1,152c-2.46-9.77-1.6-20.37,4.42-28.89a8.54,8.54,0,0,1,3.18-3,2.73,2.73,0,0,1,1.13-.27,2.47,2.47,0,0,1,1.16.3c1.57.82,1.77,3.22,1.69,4.79a13,13,0,0,1-1.89,5.4l-.15.28,0,.31a16.29,16.29,0,0,0,3.07,7.62l0,0,0,.06c-1.84-1.37-3.93-1.35-4.74-.82A3.49,3.49,0,0,0,32.78,140c1-1.13,4.45-2.27,6.28.7s.7,5.14.7,5.14A5.33,5.33,0,0,0,41,142.73a18.66,18.66,0,0,0,2.4,1.71,3,3,0,0,0,.51.21c.9.91,1.76,1.74,2.52,2.47s1.52,1.37,2.31,2c0,.06,0,.12,0,.17a12.69,12.69,0,0,0-5.88-1.21,4.2,4.2,0,0,0-3,1.11,3.84,3.84,0,0,0-.69,3.13c-.21-.65.78-1.66,1.24-2a6.73,6.73,0,0,1,3.36-.87c3.3,0,7.64,2.4,7.82,6.06.06,1.3-2,1.73-2,1.73a7.88,7.88,0,0,1,1.22-.11c-.4.62-2.48,1.46-4.62.54,3.74,1.65,5.39.15,5.82-.84a1.74,1.74,0,0,0,.64-.79c.52-1.18,0-2.76-.59-3.83A7.11,7.11,0,0,0,50,150a4.13,4.13,0,0,1,.53-2.83c1-1.21,3.08.33,4,1a22.4,22.4,0,0,0,2.76,2.42,9.55,9.55,0,0,0,3.45,1c-.39-.18-2.17-.88-2.56-1a4.88,4.88,0,0,1-1.9-1.79c2.1.73,6.72,2,5.74,3.65-.38.64-1.25.95-1.73,1.56-.11.15-.48.85-.65.88s-.87.15-5.29-.82a23.38,23.38,0,0,1,2.28,1.11,16.54,16.54,0,0,0,2.19.67c.24.05.61.21.92.25q1.92,1,3.84,2l2.19,1.14,1.22.64c-.08.16-.17.31-.26.45a4.3,4.3,0,0,0,1.51-.44s.5-1,.64-1.22a5.85,5.85,0,0,1,1.43-2,4,4,0,0,1,2.34-.55,11.6,11.6,0,0,1,5.92,2.06,11.8,11.8,0,0,1,3.18,2.71c1.8,2.46-.29,4.72-2.62,5.44-1.47.79-4.65-1-4.65-1s2.72,2.3,5.28,2.19c1.8,1.26,3.57,2.62,5.34,4.14h0a3.14,3.14,0,0,0,1.6,1c.2.08,1.44-1.33,1.65-1.5a3.78,3.78,0,0,1,2.13-.95c3.69-.31,6.29,3.57,8.08,6.28a3.25,3.25,0,0,1-1-.49c-1.13-.79-4.8-3.84-4.8-3.84a79.46,79.46,0,0,0,7.2,6.44,4.58,4.58,0,0,1-2,4.51,45.41,45.41,0,0,0-5.31-5.2c-1.89-1.63-3.81-3.23-5.67-4.9a55.54,55.54,0,0,1,6.23,6.56c8.68,10.8,12.44,23.19,10.58,34.89A31.31,31.31,0,0,1,87,238a18.76,18.76,0,0,1-3.13.92,5,5,0,0,0,1.4.12s.5,5.23-1.45,6.89A7.11,7.11,0,0,1,78.36,247ZM80,249h0ZM43.21,139.75c-.16-.34-.15-1-.35-1.24a8.21,8.21,0,0,0,3.37,3.07,4.36,4.36,0,0,1-1.72-.33A3.49,3.49,0,0,1,43.21,139.75Zm35.93,36.57a11,11,0,0,0,2,2.29,9.64,9.64,0,0,0,2.35,1.93l.47.34a1.63,1.63,0,0,0-.24-1.38,11.91,11.91,0,0,1,1.71,2.43l2.42,1.74C83.74,183.09,80.94,179.8,79.13,176.32ZM27.74,169.1a10.34,10.34,0,0,1,6,7.2A14.12,14.12,0,0,0,29.85,172c-1.75-1.45-5-3.21-6.82-1-.11.13-.62,1.43-.63,1.44h-3l1-.7C21.12,167.75,25.92,168.24,27.74,169.1Zm-.21,4.13a9.47,9.47,0,0,0,1.07.69,4,4,0,0,0-.15-1.05L30,174.57c.51.21,1,.39,1.54.56a5.07,5.07,0,0,1-4.38-.77c-.81-.54-2.1-2.17-1.83-3.24C25.22,171.5,27.19,173,27.53,173.23Zm5,28.85a10.14,10.14,0,0,1-3.07.28s2.82-.47,3.4-1.75C32.82,200.61,33.47,201.69,32.49,202.08Zm3.08,5.26s.87.87.44,1.66-2.62,1.31-3.75.52C35.22,209.26,35.57,207.34,35.57,207.34Zm1.13-1c-1.59.33-3.25-.41-4.79.44-1.95,1.07-1.39,3.19-.26,4.63-1.42-.67-3.6-2.1-3-3.91C29.65,204.58,34.58,205.67,36.7,206.36Zm56.14,24.41a8,8,0,0,0,4.45-7.3c-.08-1.76-.8-4.07-2.85-4.32a5.48,5.48,0,0,0-2.29.3c-.43-.47-1.21-.12-1.43-.3a2.05,2.05,0,0,1,.78-.31,6.8,6.8,0,0,0-1.35-.52A7.37,7.37,0,0,1,95,218c2.92,1,3.79,4.66,3.33,7.37a10,10,0,0,1-5.12,6.68c-2.17,1.11-5.2,1.62-6.62-1C87.62,233,91.5,231.49,92.84,230.77ZM70.18,171.35c-2.29,3.28-6.27,2.5-8.8,1.11,3.05,1,4.79.19,5.58-.44a11.21,11.21,0,0,1-3-.52c2.62-.26,5.2-1,5.84-2.79.84-2.4-2.23-4.81-4-5.8-2-1.13-5.28-2.36-7.62-1.44A7.74,7.74,0,0,0,54.75,164c1.19-6.19,8.89-4.71,13-2.18,2.48,1.53,6.05,5.18,3.75,8.37A4,4,0,0,1,70.18,171.35ZM62.71,165a8.33,8.33,0,0,1,2.58,1.21,1,1,0,0,0,.18-.93,3.66,3.66,0,0,1,1.44,1.47,5,5,0,0,0,1.76-.32s-.25.77-.3.85c-.83,1.16-2.72.67-3.81.29a9.38,9.38,0,0,1-3.38-2.29,3.66,3.66,0,0,1-.35-3.2A7,7,0,0,0,62.71,165Zm9.78-8.35c.18.31.71.58,1,.79a28.58,28.58,0,0,0,8.15,4.44c.66.24-.17.5-.4.48a6.2,6.2,0,0,1-1.54-.42C76.8,161,74.17,159.5,72.5,156.63Zm22.92,56.57c1.54-.72,1.67-1.24,1.65-1.43a12.12,12.12,0,0,1-4.84-.83c2.81.9,5.68.09,6.39-3s-.15-9.87-3-11.8a5,5,0,0,0-4.47-.53,13.19,13.19,0,0,0-1.71.76,1,1,0,0,1-.77.13c2.56-3.72,7.87-2.45,10.07.57,2.32,3.2,4.5,11.71,0,14.22l-.06,0,.2-.05A5,5,0,0,1,95.41,213.21ZM87.58,187a13.71,13.71,0,0,1-1.87.15s4.25-1,3-4a12.74,12.74,0,0,0-8.3-7.47,3.62,3.62,0,0,0-4.87,2.68,3.57,3.57,0,0,0-1-.06,3.13,3.13,0,0,0-.95.29c.05,0,.48-1.56.52-1.67a5.33,5.33,0,0,1,2.42-2.78c3.56-1.77,7.18.77,9.89,2.89,1.94,1.52,4,3.61,4.67,6,.58,2-.57,3.06-2.13,3.6-.43,1.28-1.64,3.08-4.94,1.88C84.06,188.52,86.52,188.46,87.58,187ZM91,228.44a5.1,5.1,0,0,0-1.29,1.82c-.75-1,.08-2.38.57-3.41a.93.93,0,0,1,.11-.24,1.57,1.57,0,0,1,.34-.46A27.82,27.82,0,0,1,95.53,222a20.17,20.17,0,0,0-2.2,3,11.59,11.59,0,0,1,1.56-.16c-2,1.22-2.38,2.15-2.38,2.15l.6,1.19C92.67,227.91,91,228.44,91,228.44Zm2.11-.2a.24.24,0,0,1,.1.2ZM96,208.38s-1.22-.44-2.7-2.79-1.13-6.37-.35-7.59,3.4-.44,3.4-.44c-1.57,1-2.09,1.66-2.35,2.7a6.2,6.2,0,0,0-.16,1.12,2.51,2.51,0,0,1,1.55-.86,9.36,9.36,0,0,0-1.4,3.07c.07.38.15.78.27,1.2A12.4,12.4,0,0,0,96,208.38ZM42.57,150.25a28.64,28.64,0,0,0,4.6,3.21,3.51,3.51,0,0,0-1-1.58,4.62,4.62,0,0,1,2.1,1.76c1-.3,1.15-.83,1.15-.83.46.93.41,2.09-1.51,1.8S42.57,150.25,42.57,150.25Zm-4.45-6.51A3,3,0,0,1,36.6,143a3.53,3.53,0,0,1-.88-3.19c-.06.29.28.82.67,1.31a1.33,1.33,0,0,1,1.21-.43,3.55,3.55,0,0,0-.62,1.13l.35.36a10.77,10.77,0,0,0,2.14,1.55C39.24,143.61,38.43,143.8,38.13,143.74Z"/><path d="M247.86,265a15.85,15.85,0,0,0,2.27-.15,68,68,0,0,1-80.26,0,15.68,15.68,0,0,0,2.27.15ZM278,210a68,68,0,1,0-122.89,40.13,15.73,15.73,0,0,1-.16-2.26,17.18,17.18,0,0,1,17.19-17.19h75.72a17.18,17.18,0,0,1,17.19,17.19,15.8,15.8,0,0,1-.15,2.26A67.65,67.65,0,0,0,278,210Zm-30.14,17.19A17.19,17.19,0,0,1,230.68,210a20.68,20.68,0,0,0-41.35,0A17.18,17.18,0,1,1,155,210a55,55,0,0,1,110.1,0A17.19,17.19,0,0,1,247.86,227.19Z"/><path id="OREZ_A_.InWings-2" data-name="OREZ[A].InWings" d="M392.22,197l.06,0a4,4,0,0,1,2.4,3c2.37-1.74,4.44-2.59,6.3-2.59a5.21,5.21,0,0,1,3.79,1.57c3.81,3.79.34,10.16-1.94,12.66-4.29,4.7-10.32,6.9-16.21,8.58a50,50,0,0,1-9.17,1.77l-.11.39a27.47,27.47,0,0,1-6,10.72,39.25,39.25,0,0,1-17.66,10.08,6.53,6.53,0,0,1-1,2.1c-1.54,2.26-4.4,3.77-8.76,4.66a19.41,19.41,0,0,1-3.84.36h-.05c-1.52,0-5.24-.26-7.13-2.89a8.84,8.84,0,0,1-1.38-5.57,11.63,11.63,0,0,1-3.55.74c-4.19,0-8.81-2.12-9.11-6.68a16.28,16.28,0,0,1,.54-4.81l-.2-.26c-4.79-.14-8.37-2.12-10.11-5.61-1.57-3.15-2.13-8.69,1.54-11.14a5.67,5.67,0,0,1,1.84-.79c-.16-1.43-.25-2.93-.27-4.5-4.66-2.42-5.12-9.87-3.62-14.41.5-1.53,2.44-6.53,6.18-6.53a4.44,4.44,0,0,1,2.11.56,34.48,34.48,0,0,1,1.87-3.31,7.14,7.14,0,0,1-2-7.33,4.18,4.18,0,0,1,1-1.62,4.57,4.57,0,0,0,.41-.52,16.1,16.1,0,0,1,5.73-7.25,9,9,0,0,1,4.94-1.55,7.86,7.86,0,0,1,.95.06,7.64,7.64,0,0,1,3.42,1.37c.83-.69,1.66-1.33,2.63-2a11,11,0,0,1-1.13-1.77c-.92-1.8.46-4.42,1.08-5.28a13.74,13.74,0,0,1,9.09-5.45,13.15,13.15,0,0,1,2.14-.19l.57,0h.1a6.59,6.59,0,0,1,4.47,1.46,2.92,2.92,0,0,1,.74,1l2.94-1.53a2.37,2.37,0,0,1-.9-3.26,6.46,6.46,0,0,1,2.7-2.82,16.46,16.46,0,0,1,4.83-1.74c.5-.12,1-.25,1.48-.39.89-.88,2.67-2.35,4.61-2.35a3.44,3.44,0,0,1,2.26.82l.53-.51c-1.33-2.18.07-4.11.91-5.27l.25-.34c1.15-1.59,2.88-4,5.48-4a4.27,4.27,0,0,1,1.3.21,11.47,11.47,0,0,0,1.4-3.82c-.09-.18-.27-.48-.37-.66a6.67,6.67,0,0,1-.38-.69,16.42,16.42,0,0,1-.73-1.94,11.72,11.72,0,0,1,0-6.37c.5-1.88,1.92-4.29,4.28-4.89a5.33,5.33,0,0,1,1.3-.16,8,8,0,0,1,5.52,2.45,28.75,28.75,0,0,1,2.38,2.92,30,30,0,0,1,4.24,8.71c.36,1.16.67,2.39.94,3.65a39.46,39.46,0,0,1,.74,8A43.21,43.21,0,0,1,396,156a42.57,42.57,0,0,1-2.76,6.28,43.43,43.43,0,0,1,5.46-.75c4.75-7.21,8.47-10.44,12-10.44a5.48,5.48,0,0,1,2.2.46c4,1.77,4.44,7.56,3.73,11A53.72,53.72,0,0,1,392.22,197Zm-.53,5.68c-.84-3.63-3.54-3.29-5.93-2.63l-1.63-.62-.29.12a73.14,73.14,0,0,1-7.55,2.39,6.86,6.86,0,0,1,2.71,3c.77,2.11-1.93,4.19-2.63,4.68a27.88,27.88,0,0,1,.35,8.95,45.47,45.47,0,0,0,9-1.69c5.39-1.54,10.89-3.52,14.59-7.58,1.65-1.81,3.81-6.09,2.05-7.83s-5.05.84-6.95,2.45l-.57.48-.64-.39C393.37,203.58,392.54,203.12,391.69,202.69Zm-15.2,3.43s-.17.11-1,.06c.19.58.37,1.17.52,1.77a2,2,0,0,0,1.41-2.25c-.08-2.25-2.72-3-3.33-3.21l-.09,0a29.08,29.08,0,0,1,1.32,3.2Zm36.75-44.24c.42-2,.35-6.21-1.71-7.11-1.55-.68-4.64.46-10.56,9.72l-.3.46-.55,0a39.46,39.46,0,0,0-7.53,1.05l.23.81-3-.7a2.79,2.79,0,0,0,.1-1c-.55.82-1.12,1.62-1.72,2.39A47.75,47.75,0,0,1,381,175l-.23.18c.54.84,1.27,2.75-.95,5.23a2.8,2.8,0,0,0-1-3.7c-1.53,1.14-3.1,2.22-4.7,3.25a10.56,10.56,0,0,0,3-.13c-2.08,1.54-5.42,2.23-6.8,2.46l-2.56,1.51c.13.91.76,2,3.09,1.84-3.38.42-4.58-.18-5-.72-1.53.89-3.06,1.8-4.59,2.74a6,6,0,0,1-1.78,2.66,20,20,0,0,1,11.91,7.89,25.7,25.7,0,0,1,1.57,2.37,71.24,71.24,0,0,0,10.14-3C398.1,191.91,409.94,177.89,413.24,161.87ZM375.49,144a10.53,10.53,0,0,0,3.35-1.33,4.2,4.2,0,0,1,.77-2.47,6.9,6.9,0,0,1,.89-1.07,13.19,13.19,0,0,0-1.37-1.32c-1.66-1.28-3.28.5-4.25,1.78a6,6,0,0,0-1.53,2.6C373.2,143.31,374.47,144,375.49,144Zm-64.28,77.08a8.12,8.12,0,0,0,1.39,3.42,8.21,8.21,0,0,0,6.29,3.35,34.84,34.84,0,0,1-4.44-11.34,4,4,0,0,0-1.51.31C311.32,217.5,311,219.5,311.21,221.08Zm5.52-28.71a6.85,6.85,0,0,0-2.7-.66c-1.23.48-1.85,2.51-2.21,3.68a14.27,14.27,0,0,0-.25,7.3,5.54,5.54,0,0,0,1,2.44,6,6,0,0,0,1.15.61,38.65,38.65,0,0,1,.66-5.26A48.1,48.1,0,0,1,316.73,192.37Zm14.09,46.9a32.61,32.61,0,0,1-8.48-6.79c-.08.39-.21.79-.28,1.16-.36,1.87-.2,3.52,1.48,4.69a8.72,8.72,0,0,0,4.95,1.39C328.78,239.72,329.84,239.47,330.82,239.27ZM341.51,247a16.81,16.81,0,0,0,6-1.92,9.91,9.91,0,0,0,3.07-2.6A32.85,32.85,0,0,1,347,243c-.74.06-6.3-2.47-9.24-3.46,1.22.11,6,1.34,9.1,1.78,8-1.36,16.27-4.7,22-10.59a23.93,23.93,0,0,0,5.14-9.27c2-7,.33-15.83-4.28-22-3.59-4.79-8.55-7.43-14-7.43a4.18,4.18,0,0,0-1,0,22.82,22.82,0,0,0-6.07,6c-1.06,1.76-1.73,4.62-.88,6.57,1.44,3.28,3.83-.3,5.89,0,1.32.2,1.52,1.68,1.32,2.75-.51,2.77-3.26,3.59-5.69,3.37a5.56,5.56,0,0,1-5.34-5.43,12.21,12.21,0,0,1,1.41-6.36c1.84-3.49,5-6.29,8.09-8.63a123,123,0,0,1,12.19-7.77c9.52-5.55,19.43-12.22,24.76-22.22a38.21,38.21,0,0,0,3.33-8.41c2.46-9.77,1.6-20.37-4.42-28.89a8.54,8.54,0,0,0-3.18-3,2.73,2.73,0,0,0-1.13-.27,2.47,2.47,0,0,0-1.16.3c-1.57.82-1.77,3.22-1.69,4.79a13,13,0,0,0,1.89,5.4l.15.28,0,.31a16.29,16.29,0,0,1-3.07,7.62l0,0,0,.06c1.84-1.37,3.93-1.35,4.74-.82A3.49,3.49,0,0,1,387.1,140c-1-1.13-4.45-2.27-6.28.7s-.7,5.14-.7,5.14a5.33,5.33,0,0,1-1.29-3.13,18.66,18.66,0,0,1-2.4,1.71,3,3,0,0,1-.51.21c-.9.91-1.76,1.74-2.52,2.47s-1.52,1.37-2.31,2c0,.06,0,.12,0,.17a12.69,12.69,0,0,1,5.88-1.21,4.2,4.2,0,0,1,3,1.11,3.84,3.84,0,0,1,.69,3.13c.21-.65-.78-1.66-1.24-2a6.73,6.73,0,0,0-3.36-.87c-3.3,0-7.64,2.4-7.82,6.06-.06,1.3,2,1.73,2,1.73a7.88,7.88,0,0,0-1.22-.11c.4.62,2.48,1.46,4.62.54-3.74,1.65-5.39.15-5.82-.84a1.74,1.74,0,0,1-.64-.79c-.52-1.18,0-2.76.59-3.83a7.11,7.11,0,0,1,2.1-2.26,4.13,4.13,0,0,0-.53-2.83c-1-1.21-3.08.33-4,1a22.4,22.4,0,0,1-2.76,2.42,9.55,9.55,0,0,1-3.45,1c.39-.18,2.17-.88,2.56-1a4.88,4.88,0,0,0,1.9-1.79c-2.1.73-6.72,2-5.74,3.65.38.64,1.25.95,1.73,1.56.11.15.48.85.65.88s.87.15,5.29-.82a23.38,23.38,0,0,0-2.28,1.11,16.54,16.54,0,0,1-2.19.67c-.24.05-.61.21-.92.25q-1.92,1-3.84,2l-2.19,1.14-1.22.64c.08.16.17.31.26.45a4.3,4.3,0,0,1-1.51-.44s-.5-1-.64-1.22a5.85,5.85,0,0,0-1.43-2,4,4,0,0,0-2.34-.55,11.6,11.6,0,0,0-5.92,2.06,11.8,11.8,0,0,0-3.18,2.71c-1.8,2.46.29,4.72,2.62,5.44,1.47.79,4.65-1,4.65-1s-2.72,2.3-5.28,2.19c-1.8,1.26-3.57,2.62-5.34,4.14h0a3.14,3.14,0,0,1-1.6,1c-.2.08-1.44-1.33-1.65-1.5a3.78,3.78,0,0,0-2.13-.95c-3.69-.31-6.29,3.57-8.08,6.28a3.25,3.25,0,0,0,1-.49c1.13-.79,4.8-3.84,4.8-3.84a79.46,79.46,0,0,1-7.2,6.44,4.58,4.58,0,0,0,2,4.51,45.41,45.41,0,0,1,5.31-5.2c1.89-1.63,3.81-3.23,5.67-4.9a55.54,55.54,0,0,0-6.23,6.56c-8.68,10.8-12.44,23.19-10.58,34.89A31.31,31.31,0,0,0,332.85,238a18.76,18.76,0,0,0,3.13.92,5,5,0,0,1-1.4.12s-.5,5.23,1.45,6.89A7.11,7.11,0,0,0,341.51,247Zm-1.59,2h0Zm36.74-109.25c.16-.34.15-1,.35-1.24a8.21,8.21,0,0,1-3.37,3.07,4.36,4.36,0,0,0,1.72-.33A3.49,3.49,0,0,0,376.67,139.75Zm-35.93,36.57a11,11,0,0,1-2,2.29,9.64,9.64,0,0,1-2.35,1.93l-.47.34a1.63,1.63,0,0,1,.24-1.38,11.91,11.91,0,0,0-1.71,2.43L332,183.68C336.14,183.09,338.94,179.8,340.75,176.32Zm51.39-7.22a10.34,10.34,0,0,0-6,7.2A14.12,14.12,0,0,1,390,172c1.75-1.45,5-3.21,6.82-1,.11.13.62,1.43.63,1.44h3l-1-.7C398.75,167.75,394,168.24,392.14,169.1Zm.21,4.13a9.47,9.47,0,0,1-1.07.69,4,4,0,0,1,.15-1.05l-1.53,1.71c-.51.21-1,.39-1.54.56a5.07,5.07,0,0,0,4.38-.77c.81-.54,2.1-2.17,1.83-3.24C394.66,171.5,392.69,173,392.35,173.23Zm-5,28.85a10.14,10.14,0,0,0,3.07.28s-2.82-.47-3.4-1.75C387.05,200.61,386.41,201.69,387.39,202.08Zm-3.08,5.26s-.87.87-.44,1.66,2.62,1.31,3.75.52C384.66,209.26,384.31,207.34,384.31,207.34Zm-1.13-1c1.59.33,3.25-.41,4.79.44,1.95,1.07,1.39,3.19.26,4.63,1.42-.67,3.6-2.1,3-3.91C390.23,204.58,385.3,205.67,383.18,206.36ZM327,230.77a8,8,0,0,1-4.45-7.3c.08-1.76.8-4.07,2.85-4.32a5.48,5.48,0,0,1,2.29.3c.43-.47,1.21-.12,1.43-.3a2.05,2.05,0,0,0-.78-.31,6.8,6.8,0,0,1,1.35-.52,7.37,7.37,0,0,0-4.84-.31c-2.92,1-3.79,4.66-3.33,7.37a10,10,0,0,0,5.12,6.68c2.17,1.11,5.2,1.62,6.62-1C332.26,233,328.38,231.49,327,230.77Zm22.66-59.42c2.29,3.28,6.27,2.5,8.8,1.11-3.05,1-4.79.19-5.58-.44a11.21,11.21,0,0,0,3-.52c-2.62-.26-5.2-1-5.84-2.79-.84-2.4,2.23-4.81,4-5.8,2-1.13,5.28-2.36,7.62-1.44a7.74,7.74,0,0,1,3.49,2.53c-1.19-6.19-8.89-4.71-13-2.18-2.48,1.53-6.05,5.18-3.75,8.37A4,4,0,0,0,349.7,171.35Zm7.47-6.36a8.33,8.33,0,0,0-2.58,1.21,1,1,0,0,1-.18-.93,3.66,3.66,0,0,0-1.44,1.47,5,5,0,0,1-1.76-.32s.25.77.3.85c.83,1.16,2.72.67,3.81.29a9.38,9.38,0,0,0,3.38-2.29,3.66,3.66,0,0,0,.35-3.2A7,7,0,0,1,357.17,165Zm-9.78-8.35c-.18.31-.71.58-1,.79a28.58,28.58,0,0,1-8.15,4.44c-.66.24.17.5.4.48a6.2,6.2,0,0,0,1.54-.42C343.07,161,345.71,159.5,347.38,156.63Zm-22.92,56.57c-1.54-.72-1.67-1.24-1.65-1.43a12.12,12.12,0,0,0,4.84-.83c-2.81.9-5.68.09-6.39-3s.15-9.87,3-11.8a5,5,0,0,1,4.47-.53,13.19,13.19,0,0,1,1.71.76,1,1,0,0,0,.77.13c-2.56-3.72-7.87-2.45-10.07.57-2.32,3.2-4.5,11.71,0,14.22l.06,0-.2-.05A5,5,0,0,0,324.47,213.21ZM332.3,187a13.71,13.71,0,0,0,1.87.15s-4.25-1-3-4a12.74,12.74,0,0,1,8.3-7.47,3.62,3.62,0,0,1,4.87,2.68,3.57,3.57,0,0,1,1-.06,3.13,3.13,0,0,1,.95.29c-.05,0-.48-1.56-.52-1.67a5.33,5.33,0,0,0-2.42-2.78c-3.56-1.77-7.18.77-9.89,2.89-1.94,1.52-4,3.61-4.67,6-.58,2,.57,3.06,2.13,3.6.43,1.28,1.64,3.08,4.94,1.88C335.82,188.52,333.36,188.46,332.3,187Zm-3.41,41.46a5.1,5.1,0,0,1,1.29,1.82c.75-1-.08-2.38-.57-3.41a.93.93,0,0,0-.11-.24,1.57,1.57,0,0,0-.34-.46,27.82,27.82,0,0,0-4.81-4.11,20.17,20.17,0,0,1,2.2,3,11.59,11.59,0,0,0-1.56-.16c2,1.22,2.38,2.15,2.38,2.15l-.6,1.19C327.21,227.91,328.88,228.44,328.88,228.44Zm-2.11-.2a.24.24,0,0,0-.1.2Zm-2.89-19.85s1.22-.44,2.7-2.79,1.13-6.37.35-7.59-3.4-.44-3.4-.44c1.57,1,2.09,1.66,2.35,2.7a6.2,6.2,0,0,1,.16,1.12,2.51,2.51,0,0,0-1.55-.86,9.36,9.36,0,0,1,1.4,3.07c-.07.38-.15.78-.27,1.2A12.4,12.4,0,0,1,323.88,208.38Zm53.42-58.13a28.64,28.64,0,0,1-4.6,3.21,3.51,3.51,0,0,1,1-1.58,4.62,4.62,0,0,0-2.1,1.76c-1-.3-1.15-.83-1.15-.83-.46.93-.41,2.09,1.51,1.8S377.31,150.25,377.31,150.25Zm4.45-6.51a3,3,0,0,0,1.52-.72,3.53,3.53,0,0,0,.88-3.19c.06.29-.28.82-.67,1.31a1.33,1.33,0,0,0-1.21-.43,3.55,3.55,0,0,1,.62,1.13l-.35.36a10.77,10.77,0,0,1-2.14,1.55C380.64,143.61,381.45,143.8,381.75,143.74Z"/></svg>