<?xml version="1.0" encoding="utf-8"?>
<svg version="1.1" id="Layer_1" xmlns="http://www.w3.org/2000/svg" xmlns:xlink="http://www.w3.org/1999/xlink" x="0px" y="0px"
	 viewBox="0 0 420 420" style="enable-background:new 0 0 420 420;" xml:space="preserve">
<path d="M33.6,196.6L33.6,196.6c-1.3,0.5-2.1,1.6-2.4,2.9c-2.3-1.6-4.3-2.5-6.1-2.5c-1.4,0-2.7,0.6-3.7,1.5
	c-3.7,3.7-0.3,9.9,1.8,12.3c4.2,4.5,10,6.7,15.7,8.3c2.9,0.9,5.9,1.5,8.9,1.7l0.1,0.4c1.2,3.9,3.1,7.4,5.8,10.4
	c4.7,4.7,10.6,8,17.1,9.8c0.2,0.8,0.5,1.5,1,2c1.5,2.2,4.3,3.7,8.5,4.5c1.3,0.2,2.5,0.4,3.7,0.4h0.1c1.5,0,5-0.3,6.9-2.8
	c1.1-1.6,1.5-3.5,1.4-5.4c1.1,0.4,2.2,0.7,3.5,0.7c4.1,0,8.5-2,8.8-6.5c0.1-1.5-0.1-3.1-0.5-4.6l0.2-0.3c4.6-0.1,8.1-2,9.8-5.4
	c1.5-3,2-8.4-1.5-10.7c-0.6-0.4-1.2-0.6-1.7-0.8c0.2-1.4,0.3-2.8,0.3-4.4c4.5-2.3,4.9-9.6,3.5-13.9c-0.5-1.5-2.3-6.3-6-6.3
	c-0.7,0-1.5,0.2-2,0.6c-0.6-1.1-1.2-2.1-1.8-3.2c1.9-1.8,2.7-4.5,1.9-7.1c-0.2-0.6-0.5-1.2-1-1.5c-0.1-0.2-0.3-0.3-0.4-0.5
	c-1.2-2.8-3.1-5.2-5.5-7c-1.5-1-3.1-1.5-4.8-1.5c-0.3,0-0.6,0-0.9,0.1c-1.2,0.2-2.3,0.6-3.3,1.4c-0.8-0.7-1.6-1.3-2.5-1.9
	c0.4-0.6,0.8-1.1,1.1-1.7c0.9-1.7-0.5-4.3-1.1-5.1c-2.1-2.9-5.2-4.7-8.8-5.3c-0.7-0.1-1.4-0.2-2-0.2h-0.6h-0.1
	c-1.5-0.1-3.1,0.4-4.4,1.5c-0.3,0.3-0.6,0.6-0.7,1l-2.9-1.5c1.1-0.6,1.5-2,0.9-3.1l0,0c-0.6-1.2-1.5-2.1-2.6-2.7
	c-1.5-0.8-3-1.4-4.6-1.6c-0.5-0.1-1-0.3-1.5-0.4c-0.9-0.9-2.6-2.3-4.5-2.3c-0.8,0-1.5,0.3-2.2,0.8l-0.5-0.5c1.3-2.1-0.1-4-0.9-5.1
	l-0.3-0.3c-1.2-1.5-2.8-3.9-5.3-3.9c-0.4,0-0.9,0.1-1.3,0.2c-0.7-1.2-1.2-2.4-1.4-3.7c0.1-0.2,0.3-0.5,0.4-0.7
	c0.1-0.2,0.3-0.5,0.4-0.7c0.3-0.6,0.5-1.3,0.7-1.8c0.6-2,0.6-4.2,0-6.2c-0.5-1.8-1.8-4.2-4.2-4.7c-0.4-0.1-0.9-0.2-1.3-0.2
	c-2,0.1-4,0.9-5.3,2.3c-0.9,0.9-1.6,1.8-2.3,2.8c-1.7,2.6-3.1,5.4-4.1,8.4c-0.4,1.2-0.7,2.3-0.9,3.5c-0.5,2.5-0.8,5.1-0.7,7.7
	c0.1,4.6,0.9,9.2,2.4,13.5c0.7,2.1,1.6,4.2,2.7,6.1c-1.7-0.4-3.5-0.6-5.3-0.8c-4.6-7-8.2-10.1-11.6-10.1c-0.8,0-1.5,0.2-2.1,0.5
	c-3.9,1.7-4.3,7.4-3.6,10.6C12.9,177.1,21.5,189.2,33.6,196.6z M34.1,202.1c0.8-3.5,3.4-3.2,5.7-2.5l1.5-0.6l0.3,0.1
	c2.4,1,4.8,1.7,7.3,2.4c-1.2,0.7-2,1.7-2.6,2.9c-0.8,2,1.8,4.1,2.5,4.5c-0.6,2.8-0.7,5.8-0.3,8.6c-2.9-0.3-5.9-0.8-8.7-1.6
	c-5.2-1.5-10.5-3.4-14.1-7.4c-1.5-1.7-3.7-5.9-1.9-7.5c1.7-1.6,4.8,0.8,6.8,2.3l0.6,0.5l0.6-0.4C32.4,203,33.2,202.5,34.1,202.1
	L34.1,202.1z M48.8,205.4c0,0,0.2,0.1,1,0.1c-0.2,0.6-0.4,1.2-0.5,1.7c-1-0.3-1.5-1.3-1.4-2.2c0.1-2.2,2.6-2.9,3.2-3.1h0.1
	c-0.5,1-0.9,2-1.3,3.1L48.8,205.4z M13.2,162.6c-0.4-1.9-0.3-6,1.6-6.9c1.5-0.7,4.5,0.5,10.3,9.4l0.3,0.5h0.5
	c2.4,0.1,4.9,0.5,7.3,1.1l-0.2,0.8l2.9-0.7c-0.1-0.3-0.1-0.7-0.1-1c0.5,0.8,1.1,1.5,1.6,2.3c2,2.6,4.4,5,7,7.2l0.2,0.2
	c-0.5,0.8-1.3,2.7,1,5c-0.7-1.3-0.3-2.8,1-3.6c1.5,1.1,3,2.1,4.5,3.2c-1,0.1-1.9,0.1-2.9-0.1c2,1.5,5.2,2.1,6.6,2.4l2.5,1.5
	c-0.1,0.9-0.8,1.9-3,1.7c3.3,0.4,4.5-0.2,4.8-0.7c1.5,0.9,3,1.7,4.5,2.6c0.3,1,1,1.9,1.7,2.6c-4.6,1.1-8.7,3.8-11.5,7.6
	c-0.6,0.8-1.1,1.5-1.5,2.3c-3.3-0.7-6.6-1.7-9.8-2.9C27.9,191.6,16.4,178.1,13.2,162.6z M49.8,145.3c-1.2-0.2-2.2-0.7-3.3-1.3
	c0-0.9-0.3-1.6-0.8-2.4c-0.3-0.4-0.6-0.7-0.9-1.1c0.4-0.5,0.9-0.9,1.4-1.3c1.6-1.3,3.2,0.5,4.2,1.7c0.7,0.7,1.2,1.5,1.5,2.5
	C52,144.6,50.7,145.3,49.8,145.3z M112,219.9c-0.2,1.2-0.7,2.3-1.4,3.3c-1.5,1.9-3.7,3.1-6.1,3.3c2-3.4,3.5-7.1,4.3-10.9
	c0.5,0,1,0.1,1.5,0.3C111.9,216.4,112.1,218.3,112,219.9z M106.7,192.1c0.8-0.4,1.7-0.6,2.6-0.7c1.2,0.5,1.7,2.4,2.1,3.6
	c0.7,2.3,0.8,4.7,0.3,7.1c-0.1,0.9-0.5,1.6-1,2.3c-0.4,0.2-0.7,0.4-1.2,0.6c-0.1-1.7-0.3-3.4-0.7-5.1
	C108.4,197.2,107.6,194.6,106.7,192.1z M93,237.5c3.1-1.7,5.9-4,8.2-6.6c0.1,0.4,0.2,0.8,0.3,1.2c0.4,1.8,0.2,3.4-1.5,4.5
	c-1.5,1-3.1,1.4-4.7,1.4C94.9,237.9,93.9,237.7,93,237.5L93,237.5z M82.7,244.9c-2-0.3-4-0.9-5.8-1.8c-1.2-0.6-2.1-1.5-3-2.5
	c1.2,0.2,2.3,0.4,3.5,0.5c0.7,0.1,6.1-2.4,8.9-3.4c-1.2,0.1-5.8,1.3-8.8,1.7c-7.7-1.4-15.8-4.5-21.3-10.3c-2.3-2.6-4-5.6-4.9-9
	c-1.9-6.8-0.3-15.3,4.2-21.3c3.5-4.6,8.2-7.2,13.5-7.2c0.3,0,0.7,0,1,0c2.3,1.5,4.3,3.5,5.9,5.8c1.1,1.7,1.6,4.5,0.9,6.4
	c-1.4,3.2-3.7-0.3-5.7,0c-1.3,0.2-1.5,1.6-1.3,2.7c0.5,2.7,3.2,3.5,5.5,3.3c2.8-0.1,5.1-2.4,5.1-5.2c0.1-2.1-0.4-4.2-1.5-6.1
	c-1.7-3.4-4.8-6.1-7.8-8.3c-3.8-2.7-7.7-5.2-11.8-7.5c-9.2-5.4-18.8-11.8-24-21.5c-1.4-2.6-2.4-5.3-3.2-8.1
	c-2.4-9.5-1.5-19.7,4.3-28c0.8-1.3,1.8-2.2,3.1-2.9c0.4-0.2,0.7-0.3,1.1-0.3c0.4,0,0.8,0.1,1.2,0.3c1.5,0.8,1.7,3.1,1.6,4.6
	c-0.2,1.8-0.9,3.7-1.8,5.2l-0.2,0.3v0.3c0.4,2.7,1.4,5.2,3,7.4l0,0v0.1c-1.7-1.4-3.8-1.4-4.5-0.8c-0.7,0.6-1.1,1.4-1.2,2.1
	c1-1.1,4.4-2.2,6.1,0.7c1.7,2.9,0.7,4.9,0.7,4.9c0.7-0.9,1.2-1.9,1.2-3c0.8,0.6,1.5,1.2,2.3,1.6c0.2,0.1,0.3,0.2,0.5,0.2
	c0.9,0.9,1.7,1.6,2.4,2.4c0.7,0.8,1.5,1.4,2.2,1.9c0,0.1,0,0.1,0,0.2c-1.7-0.9-3.8-1.3-5.7-1.2c-1.1,0-2.1,0.4-2.9,1.1
	c-0.7,0.9-0.9,1.9-0.7,3c-0.2-0.6,0.8-1.6,1.2-1.9c1-0.6,2.1-0.9,3.3-0.9c3.2,0,7.4,2.3,7.5,5.9c0.1,1.3-1.9,1.6-1.9,1.6
	c0.4-0.1,0.8-0.1,1.2-0.1c-0.4,0.6-2.4,1.5-4.5,0.5c3.6,1.5,5.2,0.1,5.6-0.8c0.3-0.2,0.5-0.5,0.6-0.8c0.5-1.2,0-2.7-0.6-3.7
	c-0.5-0.9-1.2-1.5-2-2.1c-0.2-1,0-1.9,0.5-2.7c1-1.2,3,0.3,3.9,1c0.9,0.9,1.7,1.6,2.7,2.3c1.1,0.5,2.1,0.9,3.4,1
	c-0.4-0.2-2.1-0.9-2.5-1c-0.8-0.4-1.4-1-1.8-1.7c2,0.7,6.5,1.9,5.5,3.5c-0.4,0.6-1.3,0.9-1.6,1.5c-0.1,0.1-0.5,0.9-0.7,0.9
	c-0.2,0-0.9,0.1-5.1-0.8c0.8,0.3,1.5,0.7,2.2,1.1c0.7,0.3,1.4,0.5,2.1,0.7c0.2,0.1,0.6,0.2,0.9,0.3c1.3,0.7,2.5,1.3,3.7,1.9l2.1,1.1
	l1.2,0.6c-0.1,0.2-0.2,0.3-0.3,0.4c0.5-0.1,1-0.2,1.5-0.4c0,0,0.5-1,0.6-1.2c0.3-0.8,0.8-1.4,1.4-1.9c0.7-0.4,1.5-0.6,2.2-0.6
	c2,0.1,4.1,0.8,5.7,2c1.2,0.7,2.2,1.5,3.1,2.6c1.7,2.4-0.3,4.5-2.5,5.2c-1.5,0.8-4.5-1-4.5-1s2.6,2.2,5.1,2.1c1.7,1.3,3.5,2.5,5.1,4
	l0,0c0.4,0.5,1,0.8,1.5,1c0.2,0.1,1.4-1.3,1.6-1.5c0.6-0.5,1.3-0.9,2-0.9c3.6-0.3,6.1,3.5,7.8,6.1c-0.4-0.1-0.7-0.3-1-0.5
	c-1.1-0.8-4.6-3.7-4.6-3.7c2.2,2.2,4.5,4.3,7,6.2c0.3,1.7-0.5,3.4-1.9,4.4c-1.5-1.8-3.3-3.5-5.1-5c-1.8-1.5-3.7-3.1-5.5-4.7
	c2.2,1.9,4.2,4.1,6,6.4c8.4,10.5,12,22.4,10.3,33.8c-1.4,9.8-7.5,18.3-16.3,22.7c-1,0.4-2,0.7-3,0.9c0.5,0.1,0.9,0.1,1.4,0.1
	c0,0,0.5,5-1.4,6.7C86.3,244.9,84.4,245.3,82.7,244.9z M84.2,246.9L84.2,246.9z M48.6,141.2c-0.2-0.3-0.2-1-0.3-1.2
	c0.8,1.3,1.9,2.3,3.3,3c-0.6,0-1.2-0.1-1.6-0.3C49.3,142.3,48.9,141.8,48.6,141.2z M83.3,176.5c0.6,0.9,1.2,1.5,1.9,2.2
	c0.7,0.8,1.5,1.4,2.2,1.8l0.5,0.3c0.1-0.5,0-1-0.2-1.4c0.7,0.7,1.2,1.5,1.6,2.3l2.3,1.6C87.8,183.1,85.1,179.9,83.3,176.5
	L83.3,176.5z M33.6,169.6c2.9,1.3,5.1,3.9,5.8,7c-1-1.6-2.2-3.1-3.8-4.2c-1.7-1.4-4.8-3.1-6.6-1c-0.1,0.1-0.6,1.4-0.6,1.4h-2.9
	l1-0.7C27.2,168.3,31.9,168.7,33.6,169.6z M33.4,173.5c0.3,0.3,0.7,0.5,1.1,0.7c0-0.4-0.1-0.7-0.1-1.1l1.5,1.6
	c0.5,0.2,1,0.4,1.5,0.6c-1.5,0.4-3,0.1-4.3-0.8c-0.8-0.5-2-2.1-1.7-3.1C31.2,171.9,33.1,173.3,33.4,173.5L33.4,173.5z M38.2,201.5
	c-1,0.2-1.9,0.3-3,0.3c0,0,2.7-0.5,3.3-1.7C38.5,200,39.2,201.1,38.2,201.5L38.2,201.5z M41.2,206.5c0,0,0.9,0.9,0.4,1.6
	s-2.5,1.3-3.7,0.5C40.9,208.5,41.2,206.5,41.2,206.5L41.2,206.5z M42.3,205.6c-1.5,0.3-3.2-0.4-4.6,0.4c-1.9,1.1-1.4,3.1-0.3,4.5
	c-1.4-0.7-3.5-2-2.9-3.8C35.4,203.9,40.3,205,42.3,205.6L42.3,205.6z M96.7,229.3c2.7-1.4,4.4-4.1,4.3-7.1c-0.1-1.7-0.8-4-2.7-4.2
	c-0.8-0.1-1.5,0-2.2,0.3c-0.4-0.5-1.2-0.1-1.4-0.3c0.2-0.2,0.5-0.3,0.8-0.3c-0.4-0.2-0.9-0.4-1.3-0.5c1.5-0.6,3.1-0.7,4.6-0.3
	c2.8,1,3.7,4.5,3.2,7.2c-0.6,2.8-2.4,5.1-4.9,6.5c-2.1,1.1-5,1.5-6.4-1C91.6,231.4,95.3,229.9,96.7,229.3L96.7,229.3z M74.7,171.8
	c-2.2,3.2-6.1,2.4-8.5,1.1c2.9,1,4.6,0.2,5.4-0.4c-1,0-1.9-0.2-2.9-0.5c2.5-0.3,5-1,5.6-2.7c0.8-2.3-2.1-4.6-3.9-5.6
	c-1.9-1.1-5.1-2.3-7.4-1.4c-1.4,0.5-2.4,1.4-3.3,2.4c1.2-6,8.6-4.5,12.6-2.1c2.4,1.5,5.9,5,3.7,8.1
	C75.7,171.1,75.2,171.5,74.7,171.8z M67.5,165.6c0.9,0.3,1.7,0.7,2.5,1.2c0.2-0.3,0.3-0.6,0.2-0.9c0.6,0.3,1.1,0.9,1.4,1.5
	c0.6,0,1.2-0.1,1.7-0.3c0,0-0.3,0.8-0.3,0.9c-0.8,1.2-2.6,0.7-3.7,0.3C68,167.7,67,167,66,166c-0.6-1-0.7-2-0.3-3.1
	C66,163.9,66.6,164.8,67.5,165.6z M76.9,157.5c0.2,0.3,0.7,0.6,1,0.8c2.4,1.8,5,3.3,7.9,4.3c0.7,0.2-0.2,0.5-0.4,0.5
	c-0.5-0.1-1-0.2-1.5-0.4C81.1,161.7,78.6,160.3,76.9,157.5L76.9,157.5z M99.1,212.2c1.5-0.7,1.6-1.2,1.6-1.4
	c-1.6,0.1-3.2-0.2-4.6-0.8c2.7,0.9,5.5,0.1,6.2-2.9c0.7-3-0.2-9.6-2.9-11.4c-1.3-0.9-2.9-1.1-4.4-0.5c-0.6,0.2-1.2,0.5-1.6,0.8
	c-0.2,0.1-0.5,0.2-0.8,0.1c2.5-3.6,7.6-2.3,9.8,0.6c2.2,3.1,4.4,11.3,0,13.7h-0.1l0.2-0.1C101.6,211.5,100.5,212.1,99.1,212.2
	L99.1,212.2z M91.6,186.9c-0.6,0.1-1.2,0.1-1.8,0.1c0,0,4.2-1,2.9-3.9c-1.5-3.5-4.4-6.2-8-7.3c-1.8-0.7-3.9,0.2-4.5,2
	c-0.1,0.2-0.1,0.4-0.2,0.6c-0.3-0.1-0.7-0.1-1-0.1s-0.7,0.1-0.9,0.3c0.1,0,0.5-1.5,0.5-1.6c0.5-1.2,1.3-2.1,2.3-2.7
	c3.5-1.7,7,0.8,9.6,2.8c1.8,1.5,3.9,3.5,4.5,5.8c0.6,1.9-0.6,3-2,3.5c-0.4,1.3-1.5,3-4.7,1.8C88.2,188.3,90.5,188.3,91.6,186.9z
	 M94.8,226.9c-0.6,0.5-1,1.1-1.3,1.7c-0.8-1,0.1-2.3,0.6-3.3c0-0.1,0.1-0.2,0.1-0.2c0.1-0.2,0.2-0.3,0.3-0.5c1.4-1.5,2.9-2.9,4.6-4
	c-0.8,0.9-1.5,1.8-2.1,2.9c0.5-0.1,1-0.1,1.5-0.2c-1.9,1.2-2.3,2-2.3,2l0.6,1.2C96.5,226.5,94.8,226.9,94.8,226.9z M96.9,226.8
	c0.1,0,0.1,0.1,0.1,0.2L96.9,226.8z M99.7,207.6c0,0-1.2-0.4-2.6-2.7s-1.1-6.2-0.3-7.4c0.8-1.2,3.3-0.4,3.3-0.4
	c-1.5,1-2,1.6-2.2,2.6c-0.1,0.4-0.1,0.7-0.2,1.1c0.4-0.5,0.9-0.8,1.5-0.9c-0.6,0.9-1.1,1.9-1.4,3c0.1,0.4,0.2,0.8,0.3,1.2
	C98.3,205.4,98.9,206.5,99.7,207.6z M48,151.4c1.4,1.2,2.9,2.2,4.5,3.1c-0.2-0.6-0.5-1.2-1-1.5c0.9,0.4,1.5,1,2,1.7
	c1-0.3,1.2-0.8,1.2-0.8c0.5,0.9,0.4,2-1.5,1.7C51.4,155.3,48,151.4,48,151.4z M43.7,145c-0.6-0.1-1.1-0.4-1.5-0.7
	c-0.8-0.9-1.1-1.9-0.9-3.1c-0.1,0.3,0.3,0.8,0.7,1.3c0.3-0.3,0.8-0.5,1.2-0.4c-0.3,0.3-0.5,0.7-0.6,1.1l0.3,0.4
	c0.6,0.6,1.4,1.1,2,1.5C44.7,144.9,44,145.1,43.7,145L43.7,145z M247.9,265c0.8,0,1.5,0,2.3-0.1c-23.9,17.5-56.4,17.5-80.3,0
	c0.8,0.1,1.5,0.2,2.3,0.1H247.9z M278,210c0-37.6-30.4-68-68-68s-68,30.4-68,68c0,14.4,4.6,28.5,13.1,40.1c-0.1-0.7-0.2-1.5-0.2-2.3
	c0-9.5,7.7-17.2,17.2-17.2l0,0h75.7c9.5,0,17.2,7.7,17.2,17.2l0,0c0,0.8,0,1.5-0.1,2.3C273.4,238.5,278,224.4,278,210z M247.9,227.2
	c-9.5,0-17.2-7.7-17.2-17.2c-0.3-11.4-9.7-20.5-21.1-20.2c-11.1,0.2-20,9.2-20.2,20.2c0.4,9.5-7,17.5-16.4,17.9
	c-9.5,0.4-17.5-7-17.9-16.4c0-0.5,0-1,0-1.4c0-30.4,24.6-55.1,55.1-55.1s55.1,24.6,55.1,55.1C265.1,219.5,257.4,227.2,247.9,227.2
	L247.9,227.2z M386.3,196.6L386.3,196.6c1.3,0.5,2.1,1.6,2.4,2.9c2.3-1.6,4.3-2.5,6.1-2.5c1.4,0,2.7,0.6,3.7,1.5
	c3.7,3.7,0.3,9.9-1.8,12.3c-4.2,4.5-10,6.7-15.7,8.3c-2.9,0.9-5.9,1.5-8.9,1.7l-0.1,0.4c-1.2,3.9-3.1,7.4-5.8,10.4
	c-4.7,4.7-10.6,8-17.1,9.8c-0.2,0.8-0.5,1.5-1,2c-1.5,2.2-4.3,3.7-8.5,4.5c-1.3,0.2-2.5,0.4-3.7,0.4l0,0c-1.5,0-5-0.3-6.9-2.8
	c-1.1-1.6-1.5-3.5-1.4-5.4c-1.1,0.4-2.2,0.7-3.4,0.7c-4.1,0-8.5-2-8.8-6.5c-0.1-1.5,0.1-3.1,0.5-4.6l-0.2-0.3
	c-4.6-0.1-8.1-2-9.8-5.4c-1.5-3-2-8.4,1.5-10.7c0.6-0.4,1.2-0.6,1.7-0.8c-0.2-1.4-0.3-2.8-0.3-4.4c-4.5-2.3-4.9-9.6-3.5-13.9
	c0.5-1.5,2.3-6.3,6-6.3c0.7,0,1.5,0.2,2,0.6c0.6-1.1,1.2-2.1,1.8-3.2c-1.9-1.8-2.7-4.5-1.9-7.1c0.2-0.6,0.5-1.2,1-1.5
	c0.1-0.2,0.3-0.3,0.4-0.5c1.2-2.8,3.1-5.2,5.5-7.1c1.5-1,3.1-1.5,4.7-1.5c0.3,0,0.6,0,1,0.1c1.2,0.2,2.3,0.6,3.3,1.4
	c0.8-0.7,1.6-1.3,2.5-1.9c-0.4-0.6-0.8-1.1-1.1-1.7c-0.9-1.7,0.5-4.3,1.1-5.1c2.1-2.9,5.3-4.7,8.8-5.2c0.7-0.1,1.4-0.2,2-0.2h0.6
	h0.1c1.5-0.1,3.1,0.4,4.4,1.5c0.3,0.3,0.6,0.6,0.7,1l2.8-1.5c-1.1-0.6-1.5-2-0.9-3.1l0,0c0.6-1.2,1.5-2.1,2.6-2.7
	c1.5-0.8,3-1.4,4.6-1.6c0.5-0.1,1-0.3,1.5-0.4c0.9-0.9,2.6-2.3,4.5-2.3c0.8,0,1.5,0.3,2.2,0.8l0.5-0.5c-1.3-2.1,0.1-4,0.9-5.1
	l0.3-0.3c1.1-1.5,2.8-3.9,5.3-3.9c0.4,0,0.9,0.1,1.3,0.2c0.7-1.2,1.2-2.4,1.4-3.7c-0.1-0.2-0.3-0.5-0.4-0.7s-0.3-0.5-0.4-0.7
	c-0.3-0.6-0.5-1.3-0.7-1.8c-0.6-2-0.6-4.2,0-6.2c0.5-1.8,1.8-4.2,4.2-4.7c0.4-0.1,0.9-0.2,1.3-0.2c2,0.1,4,0.9,5.3,2.3
	c0.9,0.9,1.6,1.8,2.3,2.8c1.8,2.6,3.2,5.4,4.1,8.4c0.4,1.2,0.7,2.3,0.9,3.5c0.5,2.5,0.8,5.1,0.7,7.7c-0.1,4.6-1,9.2-2.5,13.5
	c-0.7,2.1-1.6,4.2-2.7,6.1c1.7-0.4,3.5-0.6,5.3-0.8c4.6-7,8.2-10.1,11.6-10.1c0.8,0,1.5,0.2,2.1,0.5c3.9,1.7,4.3,7.4,3.6,10.6
	C406.9,177.1,398.4,189.1,386.3,196.6z M385.8,202.1c-0.8-3.5-3.4-3.2-5.7-2.5l-1.5-0.6l-0.3,0.1c-2.4,0.9-4.8,1.6-7.3,2.3
	c1.2,0.7,2,1.7,2.6,2.9c0.8,2-1.8,4.1-2.5,4.5c0.6,2.8,0.7,5.8,0.4,8.6c2.9-0.3,5.9-0.8,8.7-1.6c5.2-1.5,10.5-3.4,14.1-7.4
	c1.5-1.7,3.7-5.9,1.9-7.5c-1.7-1.6-4.8,0.8-6.8,2.3l-0.6,0.5l-0.6-0.4C387.5,203,386.6,202.5,385.8,202.1L385.8,202.1z M371.1,205.4
	c0,0-0.2,0.1-1,0.1c0.2,0.6,0.4,1.2,0.5,1.7c1-0.3,1.5-1.3,1.4-2.2c-0.1-2.2-2.6-2.9-3.2-3.1h-0.1c0.5,1,0.9,2,1.3,3.1L371.1,205.4z
	 M406.6,162.6c0.4-1.9,0.4-6-1.6-6.9c-1.5-0.7-4.5,0.5-10.3,9.4l-0.3,0.5h-0.5c-2.4,0.1-4.9,0.5-7.3,1.1l0.2,0.8l-2.9-0.7
	c0.1-0.3,0.1-0.7,0.1-1c-0.5,0.8-1.1,1.5-1.6,2.3c-2,2.7-4.4,5.1-7,7.3l-0.2,0.2c0.5,0.8,1.3,2.7-1,5c0.7-1.3,0.3-2.8-1-3.6
	c-1.5,1.1-3,2.1-4.5,3.2c1,0.1,1.9,0.1,2.9-0.1c-2,1.5-5.2,2.1-6.6,2.4l-2.5,1.5c0.1,0.9,0.8,1.9,3,1.7c-3.3,0.4-4.5-0.2-4.8-0.7
	c-1.5,0.9-3,1.7-4.5,2.6c-0.3,1-1,1.9-1.7,2.6c4.6,1.1,8.7,3.8,11.5,7.6c0.6,0.8,1.1,1.5,1.5,2.3c3.3-0.7,6.6-1.7,9.8-2.9
	C392,191.6,403.4,178.1,406.6,162.6L406.6,162.6z M370.1,145.3c1.2-0.2,2.2-0.7,3.3-1.3c0-0.9,0.3-1.6,0.8-2.4
	c0.3-0.4,0.6-0.7,0.9-1.1c-0.4-0.5-0.9-0.9-1.4-1.3c-1.6-1.3-3.2,0.5-4.2,1.7c-0.7,0.7-1.2,1.5-1.5,2.5
	C367.9,144.6,369.2,145.3,370.1,145.3z M307.9,219.9c0.2,1.2,0.7,2.3,1.4,3.3c1.5,1.9,3.7,3.1,6.1,3.3c-2-3.4-3.5-7.1-4.3-10.9
	c-0.5,0-1,0.1-1.5,0.3C308,216.4,307.7,218.3,307.9,219.9z M313.2,192.1c-0.8-0.4-1.7-0.6-2.6-0.7c-1.2,0.5-1.8,2.4-2.1,3.6
	c-0.7,2.3-0.8,4.7-0.3,7.1c0.1,0.9,0.5,1.6,1,2.3c0.4,0.2,0.7,0.4,1.1,0.6c0.1-1.7,0.3-3.4,0.7-5.1
	C311.5,197.2,312.3,194.6,313.2,192.1L313.2,192.1z M326.9,237.5c-3.1-1.7-5.9-4-8.2-6.6c-0.1,0.4-0.2,0.8-0.3,1.2
	c-0.4,1.8-0.2,3.4,1.5,4.5c1.5,1,3.1,1.4,4.8,1.4C325,237.9,325.9,237.7,326.9,237.5L326.9,237.5z M337.2,244.9c2-0.3,4-0.9,5.8-1.8
	c1.2-0.6,2.1-1.5,3-2.5c-1.2,0.2-2.3,0.4-3.5,0.5c-0.7,0.1-6.1-2.4-8.9-3.4c1.2,0.1,5.8,1.3,8.8,1.7c7.7-1.4,15.8-4.5,21.3-10.3
	c2.3-2.6,4-5.6,4.9-9c1.9-6.8,0.3-15.3-4.2-21.3c-3.5-4.6-8.2-7.2-13.5-7.2c-0.3,0-0.7,0-1,0c-2.3,1.5-4.3,3.5-5.9,5.8
	c-1.1,1.7-1.6,4.5-0.9,6.4c1.4,3.2,3.7-0.3,5.7,0c1.3,0.2,1.5,1.6,1.3,2.7c-0.5,2.7-3.2,3.5-5.5,3.3c-2.8-0.1-5.1-2.4-5.1-5.2
	c-0.1-2.1,0.4-4.3,1.4-6.2c1.7-3.4,4.8-6.1,7.8-8.3c3.8-2.7,7.7-5.2,11.8-7.5c9.2-5.4,18.8-11.8,24-21.5c1.4-2.6,2.5-5.3,3.2-8.1
	c2.4-9.5,1.5-19.7-4.3-28c-0.8-1.3-1.8-2.2-3.1-2.9c-0.4-0.2-0.7-0.3-1.1-0.3c-0.4,0-0.8,0.1-1.2,0.3c-1.5,0.8-1.7,3.1-1.6,4.6
	c0.2,1.8,0.9,3.7,1.8,5.2l0.1,0.3v0.3c-0.4,2.7-1.4,5.2-3,7.4l0,0v0.1c1.7-1.4,3.8-1.4,4.5-0.8c0.7,0.6,1.1,1.4,1.2,2.2
	c-1-1.1-4.4-2.2-6.1,0.7c-1.7,2.9-0.7,4.9-0.7,4.9c-0.8-0.9-1.2-1.9-1.3-3c-0.8,0.6-1.5,1.2-2.3,1.6c-0.2,0.1-0.3,0.2-0.5,0.2
	c-0.9,0.9-1.7,1.6-2.4,2.4c-0.7,0.8-1.5,1.4-2.2,1.9c0,0.1,0,0.1,0,0.2c1.7-0.9,3.8-1.3,5.7-1.2c1.1,0,2.1,0.4,2.9,1.1
	c0.7,0.9,0.9,1.9,0.7,3c0.2-0.6-0.8-1.6-1.2-1.9c-1-0.6-2.1-0.9-3.3-0.9c-3.2,0-7.4,2.3-7.5,5.9c-0.1,1.3,1.9,1.6,1.9,1.6
	c-0.4-0.1-0.8-0.1-1.2-0.1c0.4,0.6,2.4,1.5,4.5,0.5c-3.6,1.5-5.2,0.1-5.6-0.8c-0.3-0.2-0.5-0.5-0.6-0.8c-0.5-1.2,0-2.7,0.6-3.7
	c0.5-0.9,1.2-1.6,2-2.2c0.2-1,0-1.9-0.5-2.7c-1-1.2-3,0.3-3.9,1c-0.9,0.9-1.7,1.6-2.7,2.3c-1.1,0.5-2.1,0.9-3.4,1
	c0.4-0.2,2.1-0.9,2.5-1c0.8-0.4,1.4-1,1.8-1.7c-2,0.7-6.5,1.9-5.5,3.5c0.4,0.6,1.3,0.9,1.6,1.5c0.1,0.1,0.5,0.9,0.6,0.9
	s0.9,0.1,5.1-0.8c-0.8,0.3-1.5,0.7-2.2,1.1c-0.7,0.3-1.4,0.5-2.1,0.7c-0.2,0.1-0.6,0.2-0.9,0.3c-1.3,0.7-2.5,1.3-3.7,1.9l-2.1,1.1
	l-1.2,0.6c0.1,0.2,0.2,0.3,0.3,0.4c-0.5-0.1-1-0.2-1.5-0.4c0,0-0.5-1-0.6-1.2c-0.3-0.8-0.8-1.4-1.4-1.9c-0.7-0.4-1.5-0.6-2.2-0.6
	c-2,0.1-4.1,0.8-5.7,2c-1.2,0.7-2.2,1.5-3.1,2.6c-1.7,2.4,0.3,4.5,2.5,5.2c1.5,0.8,4.5-1,4.5-1s-2.6,2.2-5.1,2.1
	c-1.7,1.3-3.5,2.5-5.1,4l0,0c-0.4,0.5-1,0.8-1.5,1c-0.2,0.1-1.4-1.3-1.5-1.5c-0.6-0.5-1.3-0.9-2-0.9c-3.6-0.3-6.1,3.5-7.8,6.1
	c0.4-0.1,0.7-0.3,1-0.5c1.1-0.8,4.6-3.7,4.6-3.7c-2.2,2.2-4.5,4.3-7,6.2c-0.3,1.7,0.5,3.4,1.9,4.4c1.5-1.8,3.3-3.5,5.1-5
	c1.8-1.5,3.7-3.1,5.5-4.7c-2.2,1.9-4.2,4.1-6,6.4c-8.4,10.5-12,22.4-10.3,33.8c1.4,9.8,7.5,18.4,16.3,22.8c1,0.4,2,0.7,3,0.9
	c-0.5,0.1-0.9,0.1-1.4,0.1c0,0-0.5,5,1.5,6.7C333.5,244.9,335.4,245.3,337.2,244.9z M335.7,246.9L335.7,246.9z M371.3,141.2
	c0.2-0.3,0.1-1,0.4-1.2c-0.8,1.3-1.9,2.3-3.3,3c0.6,0,1.2-0.1,1.6-0.3C370.5,142.3,371,141.8,371.3,141.2L371.3,141.2z M336.5,176.5
	c-0.6,0.9-1.2,1.5-1.9,2.2c-0.7,0.8-1.5,1.4-2.3,1.8l-0.5,0.3c-0.1-0.5,0-1,0.2-1.4c-0.7,0.7-1.2,1.5-1.6,2.3l-2.3,1.7
	C332,183.1,334.7,179.9,336.5,176.5L336.5,176.5z M386.2,169.6c-2.9,1.3-5.1,3.9-5.8,7c1-1.6,2.2-3.1,3.8-4.2c1.7-1.4,4.8-3.1,6.6-1
	c0.1,0.1,0.6,1.4,0.6,1.4h2.9l-1-0.7C392.7,168.3,388,168.7,386.2,169.6L386.2,169.6z M386.4,173.5c-0.3,0.3-0.7,0.5-1.1,0.7
	c0-0.4,0.1-0.7,0.1-1.1l-1.5,1.6c-0.5,0.2-1,0.4-1.5,0.6c1.5,0.4,3,0.1,4.3-0.8c0.8-0.5,2-2.1,1.7-3.1
	C388.7,171.9,386.8,173.3,386.4,173.5L386.4,173.5z M381.6,201.5c1,0.2,1.9,0.3,3,0.3c0,0-2.7-0.5-3.3-1.7
	C381.3,200,380.7,201.1,381.6,201.5L381.6,201.5z M378.7,206.5c0,0-0.9,0.9-0.4,1.6s2.5,1.3,3.7,0.5
	C379,208.5,378.7,206.5,378.7,206.5L378.7,206.5z M377.5,205.6c1.5,0.3,3.2-0.4,4.6,0.4c1.9,1.1,1.4,3.1,0.3,4.5
	c1.4-0.7,3.5-2,2.9-3.8C384.4,203.9,379.6,205,377.5,205.6L377.5,205.6z M323.2,229.3c-2.7-1.4-4.4-4.1-4.4-7.1
	c0.1-1.7,0.8-4,2.8-4.2c0.8-0.1,1.5,0,2.2,0.3c0.4-0.5,1.2-0.1,1.4-0.3c-0.2-0.2-0.5-0.3-0.8-0.3c0.4-0.2,0.9-0.4,1.4-0.5
	c-1.5-0.6-3.1-0.8-4.6-0.3c-2.8,1-3.7,4.5-3.2,7.2c0.6,2.8,2.4,5.1,4.9,6.5c2.1,1.1,5,1.5,6.4-1
	C328.3,231.4,324.6,229.9,323.2,229.3z M345.2,171.8c2.2,3.2,6.1,2.4,8.5,1.1c-2.9,1-4.6,0.2-5.4-0.4c1,0,1.9-0.2,2.9-0.5
	c-2.5-0.3-5-1-5.6-2.7c-0.8-2.3,2.1-4.6,3.9-5.6c1.9-1.1,5.1-2.3,7.4-1.4c1.4,0.5,2.5,1.4,3.4,2.4c-1.2-6-8.6-4.5-12.6-2.1
	c-2.4,1.5-5.8,5-3.7,8.1C344.2,171.1,344.7,171.5,345.2,171.8L345.2,171.8z M352.3,165.6c-0.9,0.3-1.7,0.7-2.5,1.2
	c-0.2-0.3-0.3-0.6-0.2-0.9c-0.6,0.3-1.1,0.9-1.4,1.5c-0.6,0-1.2-0.1-1.7-0.3c0,0,0.3,0.8,0.3,0.9c0.8,1.2,2.6,0.7,3.7,0.3
	c1.3-0.5,2.3-1.3,3.3-2.2c0.6-1,0.7-2,0.4-3.1C353.9,163.9,353.2,164.8,352.3,165.6L352.3,165.6z M343,157.5c-0.2,0.3-0.7,0.6-1,0.8
	c-2.4,1.8-5,3.3-7.8,4.3c-0.7,0.2,0.2,0.5,0.4,0.5c0.5-0.1,1-0.2,1.5-0.4C338.8,161.7,341.3,160.3,343,157.5L343,157.5z
	 M320.7,212.2c-1.5-0.7-1.6-1.2-1.5-1.4c1.6,0.1,3.2-0.2,4.6-0.8c-2.7,0.9-5.5,0.1-6.2-2.9c-0.7-3,0.1-9.6,2.9-11.4
	c1.3-0.9,2.9-1.1,4.4-0.5c0.6,0.2,1.2,0.5,1.6,0.8c0.2,0.1,0.5,0.2,0.8,0.1c-2.5-3.6-7.6-2.3-9.8,0.6c-2.2,3.1-4.4,11.3,0,13.7h0.1
	l-0.2-0.1C318.2,211.5,319.4,212.1,320.7,212.2L320.7,212.2z M328.3,186.9c0.6,0.1,1.2,0.1,1.8,0.1c0,0-4.2-1-2.9-3.9
	c1.5-3.5,4.4-6.2,8-7.3c1.8-0.7,3.9,0.2,4.5,2c0.1,0.2,0.1,0.4,0.2,0.6c0.3-0.1,0.7-0.1,1-0.1s0.7,0.1,1,0.3c0,0-0.5-1.5-0.5-1.6
	c-0.5-1.2-1.3-2.1-2.3-2.7c-3.5-1.7-7,0.8-9.6,2.8c-1.8,1.5-3.9,3.5-4.5,5.8c-0.6,1.9,0.6,3,2,3.5c0.4,1.3,1.5,3,4.7,1.8
	C331.7,188.3,329.4,188.3,328.3,186.9z M325.1,227c0.6,0.5,1,1.1,1.3,1.7c0.8-1-0.1-2.3-0.6-3.3c0-0.1-0.1-0.2-0.1-0.2
	c-0.1-0.2-0.2-0.3-0.3-0.5c-1.4-1.5-3-2.8-4.6-4c0.8,0.9,1.5,1.8,2.1,2.9c-0.5-0.1-1-0.1-1.5-0.2c1.9,1.2,2.3,2,2.3,2l-0.6,1.2
	C323.4,226.5,325.1,226.9,325.1,227L325.1,227z M323,226.9c-0.1,0-0.1,0.1-0.1,0.2L323,226.9z M320.2,207.6c0,0,1.2-0.4,2.6-2.7
	s1.1-6.2,0.4-7.4c-0.7-1.2-3.3-0.4-3.3-0.4c1.5,1,2,1.6,2.3,2.6c0.1,0.4,0.1,0.7,0.2,1.1c-0.4-0.5-0.9-0.8-1.5-0.9
	c0.6,0.9,1.1,1.9,1.4,3c-0.1,0.4-0.1,0.8-0.3,1.2C321.5,205.4,321,206.5,320.2,207.6L320.2,207.6z M371.9,151.4
	c-1.4,1.2-2.9,2.2-4.5,3.1c0.2-0.6,0.5-1.2,1-1.5c-0.9,0.4-1.5,1-2,1.7c-1-0.3-1.1-0.8-1.1-0.8c-0.5,0.9-0.4,2,1.5,1.7
	C368.6,155.3,371.9,151.4,371.9,151.4L371.9,151.4z M376.2,145.1c0.6-0.1,1.1-0.3,1.5-0.7c0.8-0.9,1.1-1.9,0.9-3.1
	c0.1,0.3-0.3,0.8-0.7,1.3c-0.3-0.3-0.8-0.5-1.2-0.4c0.3,0.3,0.5,0.7,0.6,1.1l-0.4,0.4c-0.6,0.6-1.4,1.1-2,1.5
	C375.1,144.9,375.9,145.1,376.2,145.1L376.2,145.1z"/>
</svg>
