<svg xmlns="http://www.w3.org/2000/svg" viewBox="0 0 150 164"><defs><style>.cls-1{fill:#f36;}.cls-2{fill:#fff;}</style></defs><title>spritesheet</title><g id="gohome"><path class="cls-1" d="M61.45,132a5.06,5.06,0,1,1-10.11,0,6.08,6.08,0,0,0-12.16,0,5.05,5.05,0,1,1-10.11,0,16.19,16.19,0,0,1,32.38,0Zm6.44,22.63a32,32,0,0,1-45.25,0L0,132l22.63-22.63a32,32,0,0,1,45.25,45.25Zm-10.82-6.48a4.67,4.67,0,0,1-.67,0H34.12a4.62,4.62,0,0,1-.67,0,20,20,0,0,0,23.61,0ZM65.25,132a20,20,0,1,0-36.14,11.8,4.62,4.62,0,0,1,0-.67,5.05,5.05,0,0,1,5.05-5.06H56.39a5.05,5.05,0,0,1,5.06,5.06,4.65,4.65,0,0,1,0,.67A19.9,19.9,0,0,0,65.25,132Z"/></g><g id="devart"><path class="cls-2" d="M125,60a15,15,0,1,0,15,15A15,15,0,0,0,125,60Zm0,26a11,11,0,1,1,11-11A11,11,0,0,1,125,86Z"/><polygon class="cls-2" points="130.38 69.54 127.05 75.94 130.38 75.94 130.38 80.16 124.85 80.16 123.04 83.63 119.62 83.63 119.62 80.81 123.11 74.11 119.62 74.11 119.62 69.85 125.34 69.85 127.15 66.38 130.38 66.38 130.38 69.54"/></g><g id="github"><path class="cls-2" d="M75,60A15,15,0,1,0,90,75,15,15,0,0,0,75,60Zm3.14,25.54a.57.57,0,0,1-.28-.5c0-.39,0-1.68,0-3.27a2.84,2.84,0,0,0-.81-2.2c2.65-.3,5.44-1.3,5.44-5.88a4.6,4.6,0,0,0-1.22-3.2,4.27,4.27,0,0,0-.12-3.15s-1-.32-3.27,1.22a11.28,11.28,0,0,0-6,0c-2.28-1.54-3.28-1.22-3.28-1.22a4.29,4.29,0,0,0-.12,3.15,4.61,4.61,0,0,0-1.23,3.2c0,4.57,2.78,5.59,5.43,5.89A2.55,2.55,0,0,0,72,81.17a2.54,2.54,0,0,1-3.47-1,2.5,2.5,0,0,0-1.83-1.23s-1.16,0-.08.72a3.16,3.16,0,0,1,1.32,1.74s.7,2.12,4,1.4c0,1,0,1.93,0,2.22a.59.59,0,0,1-.22.46,11,11,0,1,1,6.41,0Z"/></g><g id="tumblr"><path class="cls-2" d="M25,60A15,15,0,1,0,40,75,15,15,0,0,0,25,60Zm0,26A11,11,0,1,1,36,75,11,11,0,0,1,25,86Z"/><path class="cls-2" d="M28.13,80.15,29,82.61a4.59,4.59,0,0,1-3,1c-3.76.06-5.18-2.68-5.18-4.61V73.38H19V71.15a5.28,5.28,0,0,0,3.39-4.65.14.14,0,0,1,.12-.13h2.53v4.39h3.45v2.61H25.08v5.37a1.51,1.51,0,0,0,1.66,1.7A4.06,4.06,0,0,0,28.13,80.15Z"/></g><g id="facebook"><path class="cls-2" d="M125,40a15,15,0,1,0-15-15A15,15,0,0,0,125,40Zm0-26a11,11,0,0,1,3.33,21.48V28.06h3.07l.46-3.56h-3.53V22.22c0-1,.29-1.73,1.76-1.73H132V17.31a25.19,25.19,0,0,0-2.75-.14c-2.72,0-4.58,1.66-4.58,4.71V24.5h-3.07v3.56h3.07V36A11,11,0,0,1,125,14Z"/></g><g id="twitter"><path class="cls-2" d="M70.66,34.68A7.5,7.5,0,0,1,61.29,31,15,15,0,0,0,89,19.66c-.09-.24-.21-.47-.31-.7s-.21-.38-.32-.57l.85-2.31-2.8.2a7.49,7.49,0,0,0-11.93,5.94C72.1,20,68.06,18,62,19.91,64.71,24.45,68.89,33,73.57,32.67A7.46,7.46,0,0,1,70.66,34.68Z"/></g><g id="instagram"><path class="cls-2" d="M30,10H20A10,10,0,0,0,10,20V30A10,10,0,0,0,20,40H30A10,10,0,0,0,40,30V20A10,10,0,0,0,30,10Zm6,20a6,6,0,0,1-6,6H20a6,6,0,0,1-6-6V20a6,6,0,0,1,6-6H30a6,6,0,0,1,6,6Z"/><path class="cls-2" d="M25,17a8,8,0,1,0,8,8A8,8,0,0,0,25,17Zm0,12a4,4,0,1,1,4-4A4,4,0,0,1,25,29Z"/><circle class="cls-2" cx="33" cy="18" r="2"/></g></svg>