<?xml version="1.0" encoding="utf-8"?>
<svg version="1.1" width="252px" height="232px" xmlns="http://www.w3.org/2000/svg" xmlns:xlink="http://www.w3.org/1999/xlink" x="0px" y="0px"
	 viewBox="0 0 252 232" style="enable-background:new 0 0 252 232;" xml:space="preserve">
<style type="text/css">
	.return{fill:#FF3366;}
	.icons{fill:#FFFFFF;}
	.bubble{fill:#202020;}
</style>
<g id="gohome">
	<path class="return" d="M61.5,199.6c0.1,2.8-2,5.2-4.8,5.3s-5.2-2-5.3-4.8c0-0.1,0-0.3,0-0.4c0-3.4-2.7-6.1-6.1-6.1
		c-3.4,0-6.1,2.7-6.1,6.1c0,2.8-2.3,5.1-5.1,5.1s-5.1-2.3-5.1-5.1c0-8.9,7.2-16.2,16.2-16.2C54.2,183.4,61.4,190.7,61.5,199.6z
		 M67.9,222.2c-12.5,12.5-32.8,12.5-45.3,0L0,199.6L22.6,177c12.7-12.3,32.9-12,45.3,0.7C79.9,190,79.9,209.8,67.9,222.2L67.9,222.2
		z M57.1,215.8c-0.2,0-0.4,0-0.7,0H34.1c-0.2,0-0.4,0-0.7,0C40.5,220.9,50,220.9,57.1,215.8L57.1,215.8z M65.3,199.6
		c0-11-8.9-20-20-20s-20,8.9-20,20c0,4.3,1.3,8.4,3.9,11.8c0-0.2,0-0.4,0-0.7c0-2.8,2.3-5.1,5-5.1l0,0h22.2c2.8,0,5.1,2.3,5.1,5l0,0
		c0,0.2,0,0.4,0,0.7C63.9,208,65.3,203.8,65.3,199.6z"/>
</g>
<g id="artstation">
	<path class="icons" d="M210,102c-13.3,0-24,10.7-24,24s10.7,24,24,24s24-10.7,24-24S223.3,102,210,102L210,102z M210,143.6
		c-9.8,0-17.6-7.8-17.6-17.6s7.8-17.6,17.6-17.6c9.8,0,17.6,7.8,17.6,17.6S219.8,143.6,210,143.6z"/>
	<path class="icons" d="M212.9,129.5l2.7,4.8h-13.4l0,0l0,0c-1,0-1.8-0.5-2.2-1.3l0,0l-2.1-3.5H212.9z M222,129.7c0-0.5-0.2-1-0.3-1.3
		l-7.8-13.8c-0.5-0.8-1.3-1.3-2.1-1.3h-4.2l12.2,21.1l1.9-3.4C221.8,130.5,222,130.2,222,129.7 M210.8,126.2l-5.4-9.4l-5.4,9.4
		H210.8z"/>
</g>
<g id="gumroad">
	<path class="icons" d="M126.2,102c-13.3,0-24,10.7-24,24s10.7,24,24,24s24-10.7,24-24S139.5,102,126.2,102L126.2,102z M126.2,143.6
		c-9.8,0-17.6-7.8-17.6-17.6s7.8-17.6,17.6-17.6s17.6,7.8,17.6,17.6S135.9,143.6,126.2,143.6z M136.7,124.9v8.8
		c0,1.7-1.4,3.1-3.1,3.1h-14.7c-1.7,0-3.1-1.4-3.1-3.1V119c0-1.7,1.4-3.1,3.1-3.1h12.5c0.5-0.8,1.4-1.4,2.5-1.4
		c1.6,0,2.9,1.3,2.9,2.9s-1.3,2.9-2.9,2.9c-1.1,0-2-0.6-2.5-1.4h-12.5c0,0-0.1,0-0.1,0.1v14.7c0,0,0,0.1,0.1,0.1h14.7
		c0,0,0.1,0,0.1-0.1v-8.8c0,0,0-0.1-0.1-0.1h-8.8c0,0-0.1,0-0.1,0.1v2.8c0,0,0,0.1,0.1,0.1h2c0.5-0.8,1.4-1.4,2.5-1.4
		c1.6,0,2.9,1.3,2.9,2.9s-1.3,2.9-2.9,2.9c-1.1,0-2-0.6-2.5-1.4h-2c-1.7,0-3.1-1.4-3.1-3.1v-2.8c0-1.7,1.4-3.1,3.1-3.1h8.8
		C135.3,121.8,136.7,123.2,136.7,124.9z"/>
</g>
<g id="twitch_1_">
	<path class="icons" d="M42,102c-13.3,0-24,10.7-24,24s10.7,24,24,24s24-10.7,24-24S55.3,102,42,102L42,102z M42,143.6
		c-9.8,0-17.6-7.8-17.6-17.6s7.8-17.6,17.6-17.6c9.8,0,17.6,7.8,17.6,17.6S51.8,143.6,42,143.6z"/>
	<path class="icons" d="M32.1,114l-1.6,4.2v16.7h5.7v3.1h3.1l3.1-3.1h4.7l6.3-6.3V114H32.1z M34.2,116.1h17.2v11.5l-3.7,3.7H42
		l-3.1,3.1v-3.1h-4.7V116.1z M39.9,126.5H42v-6.3h-2.1V126.5z M45.7,126.5h2.1v-6.3h-2.1V126.5z"/>
</g>
<g id="github">
	<path class="icons" d="M210,18c-13.3,0-24,10.7-24,24s10.7,24,24,24s24-10.7,24-24S223.3,18,210,18L210,18z M215,58.8
		c-0.3-0.2-0.5-0.5-0.5-0.8c0-0.6,0-2.7,0-5.3c0.2-1.3-0.3-2.6-1.3-3.5c4.3-0.5,8.6-2.1,8.6-9.4c0-1.9-0.6-3.7-1.9-5.1
		c0.6-1.6,0.5-3.5-0.2-5.1c0,0-1.6-0.5-5.3,1.9c-3.2-0.8-6.4-0.8-9.6,0c-3.7-2.4-5.3-1.9-5.3-1.9c-0.6,1.6-0.8,3.4-0.2,5.1
		c-1.3,1.4-1.9,3.2-1.9,5.1c0,7.4,4.5,9,8.6,9.4c-0.6,0.6-1,1.6-1.1,2.6c-1.9,1.1-4.5,0.3-5.6-1.6l0,0c-0.6-1.1-1.8-1.8-2.9-1.9
		c0,0-1.9,0-0.2,1.1c1,0.6,1.8,1.6,2.1,2.7c0,0,1.1,3.4,6.4,2.2c0,1.6,0,3,0,3.5c0,0.3-0.2,0.5-0.3,0.8
		c-9.3-2.9-14.6-12.6-11.7-21.9c2.9-9.3,12.6-14.6,21.9-11.7c9.3,2.9,14.6,12.6,11.7,21.9C225,52.7,220.6,57,215,58.8L215,58.8z"/>
</g>
<g id="twitter_1_">
	<path class="icons" d="M119.1,57.5c-5.8,2.1-12.3-0.3-15-5.9c5.8,12,20.2,17,32,11.2c10.9-5.3,16.2-17.8,12.3-29.3
		c-0.2-0.3-0.3-0.8-0.5-1.1c-0.2-0.3-0.3-0.6-0.5-1l1.3-3.7l-4.5,0.3c-5.3-4-12.8-2.7-16.8,2.6c-1.4,2.1-2.2,4.5-2.4,6.9
		c-3.7-3.5-10.1-6.7-19.8-3.7c4.3,7.2,11,21,18.6,20.5C122.5,55.8,120.9,56.9,119.1,57.5z"/>
</g>
<g id="instagram">
	<path class="icons" d="M50,18H34c-8.8,0-16,7.2-16,16v16c0,8.8,7.2,16,16,16h16c8.8,0,16-7.2,16-16V34C66,25.2,58.8,18,50,18z
		 M59.6,50c0,5.3-4.3,9.6-9.6,9.6H34c-5.3,0-9.6-4.3-9.6-9.6V34c0-5.3,4.3-9.6,9.6-9.6h16c5.3,0,9.6,4.3,9.6,9.6V50z"/>
	<path class="icons" d="M42,29.2c-7,0-12.8,5.8-12.8,12.8S35,54.8,42,54.8S54.8,49,54.8,42S49,29.2,42,29.2z M42,48.4
		c-3.5,0-6.4-2.9-6.4-6.4s2.9-6.4,6.4-6.4s6.4,2.9,6.4,6.4S45.5,48.4,42,48.4z"/>
	<circle class="icons" cx="54.8" cy="30.8" r="3.2"/>
</g>
<path id="bubble.normal" class="bubble" d="M198,168H90c-3.3,0-6,2.7-6,6v16c0,3.3,2.7,6,6,6h39.8l14,14l14-14H198c3.3,0,6-2.7,6-6v-16
	C204,170.7,201.3,168,198,168z"/>
<path id="bubble.small" class="bubble" d="M246,168h-34c-3.3,0-6,2.7-6,6v16c0,3.3,2.7,6,6,6h3.4l14,14l14-14h2.6c3.3,0,6-2.7,6-6v-16
	C252,170.7,249.3,168,246,168z"/>
</svg>
